#N canvas 0 23 450 300 10;
#X obj 12 10 inlet;
#X obj 12 32 t f f;
#X obj 44 66 < 0;
#X obj 44 88 * -1;
#X obj 44 110 + 0.5;
#X obj 12 137 +, f 5;
#X obj 12 159 int;
#X obj 12 181 outlet;
#X text 100 18 https://forum.pdpatchrepo.info/topic/10525/knops-and-round-in-vanilla
, f 43;
#X connect 0 0 1 0;
#X connect 1 0 5 0;
#X connect 1 1 2 0;
#X connect 2 0 3 0;
#X connect 3 0 4 0;
#X connect 4 0 5 1;
#X connect 5 0 6 0;
#X connect 6 0 7 0;
