#N canvas 380 89 847 521 10;
#X obj 40 27 r activity;
#X obj 170 26 r change;
#X obj 42 144 t f f;
#X obj 41 181 expr 1/(2*$f1);
#X obj 41 451 osc~ 0.1;
#X obj 41 609 *~;
#X text 72 610 the gate;
#X obj 219 182 delay 200;
#X obj 171 147 t b b b, f 14;
#X obj 203 559 int 1;
#X obj 100 587 tgl 15 0 empty empty empty 17 7 0 10 -262144 -1 -1 0
1;
#X obj 254 559 int 0;
#X obj 420 44 r stretch_abs;
#X obj 747 153 &&;
#X obj 747 204 sel 1;
#X obj 856 129 <= 0.05;
#X obj 856 200 sel 1;
#X obj 796 128 <= 0.1;
#X obj 747 128 > 0.05;
#X obj 633 153 &&;
#X obj 633 204 sel 1;
#X obj 633 128 > 0.1;
#X obj 682 128 <= 0.15;
#X obj 529 153 &&;
#X obj 528 198 sel 1;
#X obj 529 128 > 0.15;
#X obj 578 128 <= 0.2;
#X obj 419 146 &&;
#X obj 419 190 sel 1;
#X obj 419 121 > 0.2;
#X obj 468 121 <= 0.25;
#X obj 420 88 t f f f f f f f f f;
#X obj 419 168 change;
#X obj 856 151 change;
#X obj 529 175 change;
#X obj 633 175 change;
#X obj 747 175 change;
#X obj 859 244 bng 15 250 50 0 empty empty empty 17 7 0 10 -262144
-1 -1;
#X obj 757 256 bng 15 250 50 0 empty empty empty 17 7 0 10 -262144
-1 -1;
#N canvas 98 146 1329 602 phasing 0;
#X obj 919 160 t b b b b b;
#X obj 733 93 t b b b b b;
#X obj 836 193 random 5;
#X obj 836 221 text get phases;
#X obj 611 90 t b b b b b;
#X obj 713 193 random 5;
#X obj 713 221 text get phases;
#X obj 646 221 random 5;
#X obj 646 249 text get phases;
#X obj 351 110 t b b b b b;
#X obj 523 197 random 5;
#X obj 523 225 text get phases;
#X obj 453 243 random 5;
#X obj 453 271 text get phases;
#X obj 395 192 random 5;
#X obj 395 220 text get phases;
#X obj 350 67 inlet;
#X obj 598 20 inlet;
#X obj 730 18 inlet;
#X obj 72 55 inlet;
#X obj 77 92 t b b b b b;
#X obj 279 212 random 5;
#X obj 279 240 text get phases;
#X obj 205 279 random 5;
#X obj 205 307 text get phases;
#X obj 169 209 random 5;
#X obj 169 237 text get phases;
#X obj 80 277 random 5;
#X obj 80 305 text get phases;
#X obj 394 334 float 0;
#X obj 327 332 float 0;
#X obj 661 334 float 0;
#X obj 529 336 float 0;
#X obj 591 336 float 0;
#X obj 943 333 float 0;
#X obj 745 335 float 0;
#X obj 807 335 float 0;
#X obj 877 333 float 0;
#X obj 45 336 float 0;
#X obj 1300 332 float 0;
#X obj 1226 331 float 0;
#X obj 1028 333 float 0;
#X obj 1090 333 float 0;
#X obj 1158 332 float 0;
#X obj 272 453 outlet;
#X obj 427 453 outlet;
#X obj 585 450 outlet;
#X obj 713 450 outlet;
#X obj 62 444 outlet, f 21;
#X obj 1036 36 inlet;
#X text 1078 36 receive bang to shuffle the phase values;
#X obj 890 30 inlet;
#X connect 0 0 41 0;
#X connect 0 1 42 0;
#X connect 0 2 43 0;
#X connect 0 3 40 0;
#X connect 0 4 39 0;
#X connect 1 0 35 0;
#X connect 1 1 36 0;
#X connect 1 2 37 0;
#X connect 1 3 34 0;
#X connect 2 0 3 0;
#X connect 3 0 47 0;
#X connect 4 0 32 0;
#X connect 4 1 33 0;
#X connect 4 2 31 0;
#X connect 5 0 6 0;
#X connect 6 0 47 0;
#X connect 7 0 8 0;
#X connect 8 0 46 0;
#X connect 9 0 30 0;
#X connect 9 1 29 0;
#X connect 10 0 11 0;
#X connect 11 0 47 0;
#X connect 12 0 13 0;
#X connect 13 0 46 0;
#X connect 14 0 15 0;
#X connect 15 0 45 0;
#X connect 16 0 9 0;
#X connect 17 0 4 0;
#X connect 18 0 1 0;
#X connect 19 0 20 0;
#X connect 20 0 38 0;
#X connect 21 0 22 0;
#X connect 22 0 47 0;
#X connect 23 0 24 0;
#X connect 24 0 46 0;
#X connect 25 0 26 0;
#X connect 26 0 45 0;
#X connect 27 0 28 0;
#X connect 28 0 44 0;
#X connect 29 0 44 0;
#X connect 30 0 48 0;
#X connect 31 0 45 0;
#X connect 32 0 48 0;
#X connect 33 0 44 0;
#X connect 34 0 46 0;
#X connect 35 0 48 0;
#X connect 36 0 44 0;
#X connect 37 0 45 0;
#X connect 38 0 48 0;
#X connect 39 0 47 0;
#X connect 40 0 46 0;
#X connect 41 0 48 0;
#X connect 42 0 44 0;
#X connect 43 0 45 0;
#X connect 49 0 2 0;
#X connect 49 0 5 0;
#X connect 49 0 10 0;
#X connect 49 0 14 0;
#X connect 49 0 21 0;
#X connect 49 0 7 0;
#X connect 49 0 12 0;
#X connect 49 0 25 0;
#X connect 49 0 27 0;
#X connect 49 0 23 0;
#X connect 51 0 0 0;
#X restore 450 306 pd phasing;
#X floatatom 495 378 5 0 0 0 - - -, f 5;
#X floatatom 564 375 5 0 0 0 - - -, f 5;
#X floatatom 613 377 5 0 0 0 - - -, f 5;
#X floatatom 666 380 5 0 0 0 - - -, f 5;
#X floatatom 441 377 5 0 0 0 - - -, f 5;
#X text 559 305 to last inlet \, send the trigger to shuffle phases
, f 33;
#X obj 268 215 bng 15 250 50 0 empty empty empty 17 7 0 10 -262144
-1 -1;
#X floatatom 42 110 5 0 0 0 - - -, f 5;
#X obj 156 451 osc~ 0.1;
#X obj 156 609 *~;
#X text 187 610 the gate;
#X obj 215 587 tgl 15 0 empty empty empty 17 7 0 10 -262144 -1 -1 0
1;
#X obj 304 448 osc~ 0.1;
#X obj 304 606 *~;
#X text 335 607 the gate;
#X obj 363 584 tgl 15 0 empty empty empty 17 7 0 10 -262144 -1 -1 0
1;
#X obj 409 448 osc~ 0.1;
#X obj 409 606 *~;
#X text 440 607 the gate;
#X obj 468 584 tgl 15 0 empty empty empty 17 7 0 10 -262144 -1 -1 0
1;
#X obj 517 448 osc~ 0.1;
#X obj 517 606 *~;
#X text 548 607 the gate;
#X obj 576 584 tgl 15 0 empty empty empty 17 7 0 10 -262144 -1 -1 0
1;
#X obj 41 473 abs~;
#X obj 156 473 abs~;
#X obj 304 470 abs~;
#X obj 409 470 abs~;
#X obj 517 471 abs~;
#X obj 41 525 expr~ 0.3*(1-$v1) + $v1;
#X obj 304 525 expr~ 0.3*(1-$v1) + $v1;
#X obj 409 497 expr~ 0.3*(1-$v1) + $v1;
#X obj 517 532 expr~ 0.3*(1-$v1) + $v1;
#X obj 156 498 expr~ 0.3*(1-$v1) + $v1;
#X connect 1 0 8 0;
#X connect 2 0 3 0;
#X connect 2 1 7 1;
#X connect 3 0 4 0;
#X connect 3 0 48 0;
#X connect 3 0 52 0;
#X connect 3 0 56 0;
#X connect 3 0 60 0;
#X connect 4 0 64 0;
#X connect 7 0 11 0;
#X connect 8 0 9 0;
#X connect 8 1 7 0;
#X connect 8 2 46 0;
#X connect 9 0 10 0;
#X connect 9 0 51 0;
#X connect 9 0 55 0;
#X connect 9 0 59 0;
#X connect 9 0 63 0;
#X connect 10 0 5 1;
#X connect 11 0 10 0;
#X connect 11 0 51 0;
#X connect 11 0 55 0;
#X connect 11 0 59 0;
#X connect 11 0 63 0;
#X connect 12 0 31 0;
#X connect 13 0 36 0;
#X connect 14 0 38 0;
#X connect 14 0 39 3;
#X connect 15 0 33 0;
#X connect 16 0 39 4;
#X connect 16 1 37 0;
#X connect 17 0 13 1;
#X connect 18 0 13 0;
#X connect 19 0 35 0;
#X connect 20 0 39 2;
#X connect 21 0 19 0;
#X connect 22 0 19 1;
#X connect 23 0 34 0;
#X connect 24 0 39 1;
#X connect 25 0 23 0;
#X connect 26 0 23 1;
#X connect 27 0 32 0;
#X connect 28 0 39 0;
#X connect 29 0 27 0;
#X connect 30 0 27 1;
#X connect 31 0 29 0;
#X connect 31 1 30 0;
#X connect 31 2 25 0;
#X connect 31 3 26 0;
#X connect 31 4 21 0;
#X connect 31 5 22 0;
#X connect 31 6 18 0;
#X connect 31 7 17 0;
#X connect 31 8 15 0;
#X connect 32 0 28 0;
#X connect 33 0 16 0;
#X connect 34 0 24 0;
#X connect 35 0 20 0;
#X connect 36 0 14 0;
#X connect 39 0 44 0;
#X connect 39 1 40 0;
#X connect 39 2 41 0;
#X connect 39 3 42 0;
#X connect 39 4 43 0;
#X connect 40 0 48 1;
#X connect 41 0 52 1;
#X connect 42 0 56 1;
#X connect 43 0 60 1;
#X connect 44 0 4 1;
#X connect 46 0 39 5;
#X connect 47 0 2 0;
#X connect 48 0 65 0;
#X connect 51 0 49 1;
#X connect 52 0 66 0;
#X connect 55 0 53 1;
#X connect 56 0 67 0;
#X connect 59 0 57 1;
#X connect 60 0 68 0;
#X connect 63 0 61 1;
#X connect 64 0 69 0;
#X connect 65 0 73 0;
#X connect 66 0 70 0;
#X connect 67 0 71 0;
#X connect 68 0 72 0;
#X connect 69 0 5 0;
#X connect 70 0 53 0;
#X connect 71 0 57 0;
#X connect 72 0 61 0;
#X connect 73 0 49 0;
